<svg xmlns="http://www.w3.org/2000/svg" viewBox="0 0 405.24 50.2"><defs><style>.cls-1{fill:#bc7979;}.cls-2{fill:#f7f6f4;}</style></defs><title>アセット 21</title><g id="レイヤー_2" data-name="レイヤー 2"><g id="レイヤー_1-2" data-name="レイヤー 1"><rect class="cls-1" width="405.24" height="50.2" rx="25.1" ry="25.1"/><path class="cls-2" d="M21.9,30.92c4.42-4,7-7,7-9.52a2.34,2.34,0,0,0-2.44-2.65,4.18,4.18,0,0,0-3,1.68l-1.76-1.76a6.58,6.58,0,0,1,5.17-2.47,4.78,4.78,0,0,1,5.13,5c0,3-2.45,6.12-5.42,9,.82-.09,1.89-.18,2.64-.18h3.55v2.73H21.9Z"/><path class="cls-2" d="M35.76,24.59c0-5.64,2.2-8.39,5.52-8.39s5.51,2.78,5.51,8.39-2.2,8.51-5.51,8.51S35.76,30.2,35.76,24.59Zm8,0c0-4.56-1.06-5.88-2.45-5.88S38.82,20,38.82,24.59s1.06,6,2.46,6S43.73,29.16,43.73,24.59Z"/><path class="cls-2" d="M50.44,30.17h3.49V19.88H51v-2a10.56,10.56,0,0,0,3.78-1.37h2.4V30.17h3.06v2.62H50.44Z"/><path class="cls-2" d="M64.27,30.17h3.5V19.88h-3v-2a10.62,10.62,0,0,0,3.79-1.37H71V30.17h3.06v2.62h-9.8Z"/><path class="cls-2" d="M102.89,30H95.36v4.71h-2.7V30H82.75V27.51h3.48V21.75h6.43V19.11H88a19.77,19.77,0,0,1-3,4,19,19,0,0,0-2.26-1.69,17,17,0,0,0,4.62-7.33l2.66.68a14,14,0,0,1-.73,1.81h12.44v2.53H95.36v2.64h5.81v2.42H95.36v3.34h7.53ZM92.66,27.51V24.17H88.85v3.34Z"/><path class="cls-2" d="M111.16,24.59c0-5.64,2.2-8.39,5.52-8.39s5.5,2.78,5.5,8.39-2.2,8.51-5.5,8.51S111.16,30.2,111.16,24.59Zm8,0c0-4.56-1.06-5.88-2.44-5.88s-2.47,1.32-2.47,5.88,1.06,6,2.47,6S119.12,29.16,119.12,24.59Z"/><path class="cls-2" d="M134.13,20a3.57,3.57,0,0,0-2.51-1.19c-1.87,0-3.41,1.41-3.55,5.48a4.74,4.74,0,0,1,3.35-1.74c2.73,0,4.66,1.63,4.66,5.13A5.09,5.09,0,0,1,131,33.1c-3.1,0-5.85-2.49-5.85-8.23,0-6.07,3-8.67,6.29-8.67a6,6,0,0,1,4.42,1.85Zm-1,7.68c0-1.94-.9-2.84-2.31-2.84a3.21,3.21,0,0,0-2.66,1.71c.31,3,1.41,4.12,2.77,4.12S133.11,29.65,133.11,27.67Z"/><path class="cls-2" d="M161.82,31.36c0,1.59-.37,2.34-1.38,2.78s-2.6.5-4.86.5a11.88,11.88,0,0,0-1.1-2.75c1.54.09,3.38.07,3.87.07s.7-.18.7-.64V28.13h-9.42a11.88,11.88,0,0,1-3.71,6.58,10.4,10.4,0,0,0-2-1.89c3.32-2.84,3.63-7,3.63-10.39V15.19h14.3Zm-2.77-5.76V22.91h-8.82c0,.84-.07,1.76-.16,2.69Zm-8.82-7.86v2.69h8.82V17.74Z"/><path class="cls-2" d="M173.55,30.17h3.5V19.88h-3v-2a10.49,10.49,0,0,0,3.78-1.37h2.4V30.17h3.06v2.62h-9.79Z"/><path class="cls-2" d="M186.15,30.88l1.5-2.07a5.07,5.07,0,0,0,3.59,1.65,2.73,2.73,0,0,0,2.88-3,2.64,2.64,0,0,0-2.75-2.95,3.85,3.85,0,0,0-2.44.86l-1.48-1,.44-7.9h8.72v2.71h-5.92l-.31,3.45a4.19,4.19,0,0,1,2-.46c2.72,0,5,1.63,5,5.17a5.5,5.5,0,0,1-5.7,5.72A7.43,7.43,0,0,1,186.15,30.88Z"/><path class="cls-2" d="M223.62,15.48V34.4h-2.81V33H211v1.43h-2.71v-19ZM211,18.12v4.73h9.77V18.12Zm9.77,12.25V25.44H211v4.93Z"/><path class="cls-2" d="M248.72,31v2.64H228.83V31h7.86V14.42h2.82v6.32h7.78v2.64h-7.78V31Z"/><path class="cls-2" d="M271.58,26.68h-8.53v8h-2.73v-8H251.8V24h8.52V19.46h-3.68A20.37,20.37,0,0,1,254,23.33a19.9,19.9,0,0,0-2.48-1.6,18.2,18.2,0,0,0,4.31-7.68l2.8.68c-.25.72-.51,1.43-.8,2.15h12v2.58h-6.82V24h8.53Z"/><path class="cls-2" d="M280.09,28.74a4.73,4.73,0,0,1,2.8-4.24v-.11a4.63,4.63,0,0,1-2.16-3.87c0-2.62,2.07-4.3,4.91-4.3s4.73,1.74,4.73,4.34a4.73,4.73,0,0,1-2.09,3.72v.11A4.74,4.74,0,0,1,291,28.74c0,2.47-2.18,4.36-5.48,4.36C282.43,33.1,280.09,31.3,280.09,28.74Zm7.9-.11c0-1.69-1.49-2.39-3.61-3.25a3.89,3.89,0,0,0-1.49,3,2.49,2.49,0,0,0,2.73,2.42A2.13,2.13,0,0,0,288,28.63Zm-.26-7.87a2.08,2.08,0,0,0-2.16-2.27,1.9,1.9,0,0,0-2,2c0,1.54,1.26,2.28,3,3A3.88,3.88,0,0,0,287.73,20.76Z"/><path class="cls-2" d="M306.71,30.46h-4.46V32.4h-2.42V15.5h6.88Zm-4.46-12.63V21.7h2V17.83Zm2,10.3V24h-2v4.14Zm10.37-9.33v2.09H319v2.27h-1.6v1.71h2.11v2.27h-2.11v4.8c0,1.25-.25,1.91-1.13,2.31a9.71,9.71,0,0,1-3.67.44,9.53,9.53,0,0,0-.81-2.47c1.05,0,2.26,0,2.59,0s.46-.08.46-.39V27.14h-7.7V24.87h7.7V23.16h-7V20.89h4.25V18.8h-4.95V16.51h4.95V14.16h2.58v2.35h4.95V18.8Zm-4.47,8.65A27.8,27.8,0,0,1,312.81,31l-2.29,1.34a30.73,30.73,0,0,0-2.53-3.7Z"/><path class="cls-2" d="M327.35,30.83l1.52-2a5.19,5.19,0,0,0,3.63,1.67c1.65,0,2.77-.81,2.77-2.27s-.95-2.59-4.49-2.59V23.27c3,0,4-1,4-2.49a2,2,0,0,0-2.18-2.05,4.66,4.66,0,0,0-3.08,1.46l-1.65-2a7.2,7.2,0,0,1,4.89-2c3.15,0,5.28,1.54,5.28,4.34a3.87,3.87,0,0,1-2.73,3.72v.11a4.06,4.06,0,0,1,3.26,4c0,3-2.62,4.73-5.72,4.73A6.91,6.91,0,0,1,327.35,30.83Z"/><path class="cls-2" d="M341.58,24.59c0-5.64,2.2-8.39,5.53-8.39s5.5,2.78,5.5,8.39-2.2,8.51-5.5,8.51S341.58,30.2,341.58,24.59Zm8,0c0-4.56-1.06-5.88-2.44-5.88s-2.47,1.32-2.47,5.88,1.06,6,2.47,6S349.55,29.16,349.55,24.59Z"/><path class="cls-2" d="M375.18,14.49a13.61,13.61,0,0,0,6.31,7.92,14.8,14.8,0,0,0-1.84,2.42A15.85,15.85,0,0,1,378,23.55c-.24,6.49-.5,9-1.27,9.93a2.63,2.63,0,0,1-2,1.05,22.58,22.58,0,0,1-3.33.07,6.3,6.3,0,0,0-.85-2.64c1.21.09,2.35.11,2.9.11a1,1,0,0,0,.88-.31c.44-.49.68-2.44.88-7h-4.33c-.56,4.22-2,8-7.68,10.12a8.79,8.79,0,0,0-1.74-2.42c5-1.61,6.11-4.51,6.55-7.7h-3.71V23.29a18.79,18.79,0,0,1-1.65,1.58,17.87,17.87,0,0,0-2.2-1.93,15.57,15.57,0,0,0,5.45-8l2.75.66a22.66,22.66,0,0,1-3.45,6.63h11.4a18.26,18.26,0,0,1-3.33-5.26h-3.49V14.49Z"/></g></g></svg>