<svg xmlns="http://www.w3.org/2000/svg" viewBox="0 0 405.24 50.2"><defs><style>.cls-1{fill:#b3aeaf;}.cls-2{fill:#f7f6f4;}</style></defs><title>アセット 24</title><g id="レイヤー_2" data-name="レイヤー 2"><g id="レイヤー_1-2" data-name="レイヤー 1"><rect class="cls-1" width="405.24" height="50.2" rx="25.1" ry="25.1"/><path class="cls-2" d="M28.9,31.92c4.43-4,7-7,7-9.52a2.33,2.33,0,0,0-2.44-2.64,4.21,4.21,0,0,0-3,1.67l-1.76-1.76a6.58,6.58,0,0,1,5.17-2.47,4.78,4.78,0,0,1,5.13,5c0,3-2.45,6.12-5.42,9,.82-.09,1.9-.18,2.64-.18h3.55v2.73H28.9Z"/><path class="cls-2" d="M42.76,25.59c0-5.64,2.2-8.39,5.53-8.39s5.5,2.78,5.5,8.39-2.2,8.51-5.5,8.51S42.76,31.2,42.76,25.59Zm8,0c0-4.56-1.06-5.88-2.44-5.88S45.82,21,45.82,25.59s1.06,6,2.47,6S50.73,30.16,50.73,25.59Z"/><path class="cls-2" d="M57.44,31.18h3.49V20.88H58v-2a10.56,10.56,0,0,0,3.78-1.37h2.4V31.18h3.06v2.61H57.44Z"/><path class="cls-2" d="M77.9,20.22H70.57V17.51H81.4v2c-3.79,4.62-4.29,7.94-4.56,14.32H73.56C73.85,28.14,74.79,24.53,77.9,20.22Z"/><path class="cls-2" d="M109.89,31h-7.53v4.71h-2.7V31H89.75V28.51h3.48V22.75h6.43V20.11H95a19.77,19.77,0,0,1-3,4,19,19,0,0,0-2.26-1.69,17,17,0,0,0,4.62-7.33l2.66.68a14,14,0,0,1-.73,1.81h12.44v2.53h-6.32v2.64h5.81v2.42h-5.81v3.34h7.53ZM99.66,28.51V25.17H95.85v3.34Z"/><path class="cls-2" d="M120,30.32a3.7,3.7,0,0,0,2.57,1.14c1.83,0,3.35-1.39,3.48-5.48a4.53,4.53,0,0,1-3.35,1.78c-2.7,0-4.66-1.67-4.66-5.12a5.1,5.1,0,0,1,5.13-5.44c3.08,0,5.85,2.42,5.85,8.08,0,6.16-3,8.82-6.25,8.82a6.11,6.11,0,0,1-4.47-1.85Zm6-6.6c-.28-3-1.41-4.07-2.79-4.07-1.21,0-2.2,1-2.2,3s.9,2.81,2.31,2.81A3.24,3.24,0,0,0,126,23.72Z"/><path class="cls-2" d="M155,32.36c0,1.59-.38,2.34-1.39,2.78s-2.6.5-4.86.5a11.46,11.46,0,0,0-1.1-2.75c1.54.09,3.39.07,3.87.07s.7-.18.7-.64V29.13H142.8a12,12,0,0,1-3.72,6.58,10.13,10.13,0,0,0-2-1.89c3.33-2.84,3.63-7,3.63-10.39V16.19H155Zm-2.78-5.76V23.91h-8.82c0,.84-.06,1.76-.15,2.69Zm-8.82-7.86v2.69h8.82V18.74Z"/><path class="cls-2" d="M166.71,31.18h3.5V20.88h-3v-2A10.49,10.49,0,0,0,171,17.51h2.4V31.18h3.06v2.61h-9.79Z"/><path class="cls-2" d="M179.71,25.59c0-5.64,2.2-8.39,5.53-8.39s5.5,2.78,5.5,8.39-2.2,8.51-5.5,8.51S179.71,31.2,179.71,25.59Zm8,0c0-4.56-1.06-5.88-2.44-5.88s-2.47,1.32-2.47,5.88,1.06,6,2.47,6S187.68,30.16,187.68,25.59Z"/><path class="cls-2" d="M216.79,16.48V35.4H214V34H204.2v1.43h-2.71v-19ZM204.2,19.12v4.73H214V19.12ZM214,31.37V26.44H204.2v4.93Z"/><path class="cls-2" d="M242.06,31h-8.82v4.69h-2.71V31H222V28.51h8.58V26h-6.4V16.06h15.64V26h-6.53v2.51h8.82ZM226.7,20h10.37V18.37H226.7Zm0,3.71h10.37V22.11H226.7Z"/><path class="cls-2" d="M264.77,32v2.64H244.88V32h7.85V15.42h2.82v6.32h7.79v2.64h-7.79V32Z"/><path class="cls-2" d="M275.06,30.32a3.74,3.74,0,0,0,2.57,1.14c1.83,0,3.35-1.39,3.48-5.48a4.51,4.51,0,0,1-3.34,1.78c-2.71,0-4.67-1.67-4.67-5.12a5.1,5.1,0,0,1,5.13-5.44c3.08,0,5.85,2.42,5.85,8.08,0,6.16-3,8.82-6.25,8.82a6.09,6.09,0,0,1-4.46-1.85Zm6-6.6c-.29-3-1.41-4.07-2.8-4.07-1.21,0-2.2,1-2.2,3s.9,2.81,2.31,2.81A3.25,3.25,0,0,0,281.07,23.72Z"/><path class="cls-2" d="M299.88,31.46h-4.47V33.4H293V16.5h6.89Zm-4.47-12.63V22.7h2V18.83Zm2,10.3V25h-2v4.14ZM307.8,19.8v2.09h4.36v2.27h-1.61v1.71h2.11v2.27h-2.11v4.8c0,1.25-.24,1.91-1.12,2.31a9.8,9.8,0,0,1-3.68.44,9.66,9.66,0,0,0-.81-2.47c1.05.05,2.26.05,2.59.05s.47-.09.47-.4V28.14h-7.7V25.87H308V24.16h-7V21.89h4.24V19.8h-5V17.51h5V15.16h2.58v2.35h4.95V19.8Zm-4.47,8.65A27.8,27.8,0,0,1,306,32l-2.29,1.34a29.6,29.6,0,0,0-2.53-3.7Z"/><path class="cls-2" d="M320.51,31.83l1.52-2a5.21,5.21,0,0,0,3.63,1.67c1.65,0,2.77-.81,2.77-2.27s-.94-2.59-4.49-2.59V24.27c3,0,4-1,4-2.49a2,2,0,0,0-2.18-2.05,4.67,4.67,0,0,0-3.08,1.46l-1.65-2a7.18,7.18,0,0,1,4.88-2c3.15,0,5.28,1.54,5.28,4.34a3.87,3.87,0,0,1-2.73,3.72v.11a4.06,4.06,0,0,1,3.26,4c0,3-2.62,4.73-5.72,4.73A6.92,6.92,0,0,1,320.51,31.83Z"/><path class="cls-2" d="M334.75,25.59c0-5.64,2.2-8.39,5.52-8.39s5.5,2.78,5.5,8.39-2.2,8.51-5.5,8.51S334.75,31.2,334.75,25.59Zm8,0c0-4.56-1-5.88-2.44-5.88S337.8,21,337.8,25.59s1.06,6,2.47,6S342.71,30.16,342.71,25.59Z"/><path class="cls-2" d="M368.34,15.49a13.59,13.59,0,0,0,6.32,7.92,14.84,14.84,0,0,0-1.85,2.42,15.73,15.73,0,0,1-1.67-1.28c-.25,6.49-.51,9-1.28,9.93a2.61,2.61,0,0,1-2,1.05,22.48,22.48,0,0,1-3.32.07,6.46,6.46,0,0,0-.86-2.64c1.21.09,2.35.11,2.9.11a1,1,0,0,0,.88-.31c.44-.48.68-2.44.88-7H364c-.55,4.22-2,8-7.68,10.12a8.79,8.79,0,0,0-1.74-2.42c5-1.61,6.12-4.51,6.56-7.7h-3.72V24.29a18.79,18.79,0,0,1-1.65,1.58,17.17,17.17,0,0,0-2.2-1.93,15.64,15.64,0,0,0,5.46-8l2.75.66a22.92,22.92,0,0,1-3.46,6.63h11.4a18.22,18.22,0,0,1-3.32-5.26h-3.5V15.49Z"/></g></g></svg>