<svg xmlns="http://www.w3.org/2000/svg" viewBox="0 0 405.24 50.2"><defs><style>.cls-1{fill:#d8a1a1;}.cls-2{fill:#f7edeb;}</style></defs><title>アセット 3</title><g id="レイヤー_2" data-name="レイヤー 2"><g id="レイヤー_1-2" data-name="レイヤー 1"><rect class="cls-1" width="405.24" height="50.2" rx="25.1" ry="25.1"/><path class="cls-2" d="M22.76,30.17h3.5V19.88h-3v-2a10.49,10.49,0,0,0,3.78-1.37h2.4V30.17h3.06v2.62H22.76Z"/><path class="cls-2" d="M37.63,29.32a3.79,3.79,0,0,0,2.58,1.14c1.82,0,3.34-1.39,3.47-5.48a4.51,4.51,0,0,1-3.34,1.78c-2.71,0-4.67-1.67-4.67-5.12A5.11,5.11,0,0,1,40.8,16.2c3.08,0,5.85,2.42,5.85,8.08,0,6.16-3,8.82-6.25,8.82a6.1,6.1,0,0,1-4.46-1.85Zm6-6.6c-.29-3-1.41-4.07-2.8-4.07-1.21,0-2.2,1-2.2,3s.91,2.81,2.31,2.81A3.25,3.25,0,0,0,43.64,22.72Z"/><path class="cls-2" d="M51.47,29.32A3.76,3.76,0,0,0,54,30.46c1.83,0,3.35-1.39,3.48-5.48a4.53,4.53,0,0,1-3.34,1.78c-2.71,0-4.67-1.67-4.67-5.12a5.1,5.1,0,0,1,5.13-5.44c3.08,0,5.85,2.42,5.85,8.08,0,6.16-3,8.82-6.25,8.82a6.09,6.09,0,0,1-4.46-1.85Zm6-6.6c-.29-3-1.41-4.07-2.8-4.07-1.21,0-2.2,1-2.2,3s.9,2.81,2.31,2.81A3.26,3.26,0,0,0,57.48,22.72Z"/><path class="cls-2" d="M63.5,28.74a4.73,4.73,0,0,1,2.8-4.24v-.11a4.63,4.63,0,0,1-2.16-3.87c0-2.62,2.07-4.3,4.91-4.3s4.73,1.74,4.73,4.34a4.73,4.73,0,0,1-2.09,3.72v.11a4.72,4.72,0,0,1,2.73,4.35c0,2.47-2.18,4.36-5.48,4.36C65.84,33.1,63.5,31.3,63.5,28.74Zm7.9-.11c0-1.69-1.49-2.39-3.61-3.25a3.89,3.89,0,0,0-1.49,3A2.49,2.49,0,0,0,69,30.81,2.13,2.13,0,0,0,71.4,28.63Zm-.26-7.87A2.08,2.08,0,0,0,69,18.49a1.9,1.9,0,0,0-2,2c0,1.54,1.26,2.28,3,3A3.88,3.88,0,0,0,71.14,20.76Z"/><path class="cls-2" d="M102.89,30H95.36v4.71h-2.7V30H82.75V27.51h3.48V21.75h6.43V19.11H88a19.77,19.77,0,0,1-3,4,19,19,0,0,0-2.26-1.69,17,17,0,0,0,4.62-7.33l2.66.68a14,14,0,0,1-.73,1.81h12.44v2.53H95.36v2.64h5.81v2.42H95.36v3.34h7.53ZM92.66,27.51V24.17H88.85v3.34Z"/><path class="cls-2" d="M112,30.17h3.5V19.88h-2.95v-2a10.62,10.62,0,0,0,3.79-1.37h2.39V30.17h3.06v2.62H112Z"/><path class="cls-2" d="M125,30.92c4.42-4,7-7,7-9.52a2.34,2.34,0,0,0-2.44-2.65,4.18,4.18,0,0,0-3,1.68l-1.76-1.76A6.58,6.58,0,0,1,130,16.2a4.77,4.77,0,0,1,5.12,5c0,3-2.44,6.12-5.41,9,.82-.09,1.89-.18,2.64-.18h3.55v2.73H125Z"/><path class="cls-2" d="M161.82,31.36c0,1.59-.37,2.34-1.38,2.78s-2.6.5-4.86.5a11.88,11.88,0,0,0-1.1-2.75c1.54.09,3.38.07,3.87.07s.7-.18.7-.64V28.13h-9.42a11.88,11.88,0,0,1-3.71,6.58,10.4,10.4,0,0,0-2-1.89c3.32-2.84,3.63-7,3.63-10.39V15.19h14.3Zm-2.77-5.76V22.91h-8.82c0,.84-.07,1.76-.16,2.69Zm-8.82-7.86v2.69h8.82V17.74Z"/><path class="cls-2" d="M173.55,30.17h3.5V19.88h-3v-2a10.49,10.49,0,0,0,3.78-1.37h2.4V30.17h3.06v2.62h-9.79Z"/><path class="cls-2" d="M194,19.22h-7.33V16.51h10.83v2c-3.79,4.62-4.29,7.94-4.56,14.32h-3.28C190,27.14,190.91,23.53,194,19.22Z"/><path class="cls-2" d="M223.62,15.48V34.4h-2.81V33H211v1.43h-2.71v-19ZM211,18.12v4.73h9.77V18.12Zm9.77,12.25V25.44H211v4.93Z"/><path class="cls-2" d="M239.75,18.42v3.44l.44-.51a53.58,53.58,0,0,1,7.52,4.53l-1.93,2.4a44.58,44.58,0,0,0-6-4.07V34.6h-2.82V18.42H229V15.78h19.6v2.64Z"/><path class="cls-2" d="M271.58,26.68h-8.53v8h-2.73v-8H251.8V24h8.52V19.46h-3.68A20.37,20.37,0,0,1,254,23.33a19.9,19.9,0,0,0-2.48-1.6,18.2,18.2,0,0,0,4.31-7.68l2.8.68c-.25.72-.51,1.43-.8,2.15h12v2.58h-6.82V24h8.53Z"/><path class="cls-2" d="M280.86,30.17h3.5V19.88h-2.95v-2a10.62,10.62,0,0,0,3.79-1.37h2.4V30.17h3.06v2.62h-9.8Z"/><path class="cls-2" d="M306.71,30.46h-4.46V32.4h-2.42V15.5h6.88Zm-4.46-12.63V21.7h2V17.83Zm2,10.3V24h-2v4.14Zm10.37-9.33v2.09H319v2.27h-1.6v1.71h2.11v2.27h-2.11v4.8c0,1.25-.25,1.91-1.13,2.31a9.71,9.71,0,0,1-3.67.44,9.53,9.53,0,0,0-.81-2.47c1.05,0,2.26,0,2.59,0s.46-.08.46-.39V27.14h-7.7V24.87h7.7V23.16h-7V20.89h4.25V18.8h-4.95V16.51h4.95V14.16h2.58v2.35h4.95V18.8Zm-4.47,8.65A27.8,27.8,0,0,1,312.81,31l-2.29,1.34a30.73,30.73,0,0,0-2.53-3.7Z"/><path class="cls-2" d="M328.58,30.17h3.5V19.88h-2.95v-2a10.62,10.62,0,0,0,3.79-1.37h2.39V30.17h3.06v2.62h-9.79Z"/><path class="cls-2" d="M342.42,30.17h3.5V19.88H343v-2a10.49,10.49,0,0,0,3.78-1.37h2.4V30.17h3.06v2.62h-9.79Z"/><path class="cls-2" d="M375.18,14.49a13.61,13.61,0,0,0,6.31,7.92,14.8,14.8,0,0,0-1.84,2.42A15.85,15.85,0,0,1,378,23.55c-.24,6.49-.5,9-1.27,9.93a2.63,2.63,0,0,1-2,1.05,22.58,22.58,0,0,1-3.33.07,6.3,6.3,0,0,0-.85-2.64c1.21.09,2.35.11,2.9.11a1,1,0,0,0,.88-.31c.44-.49.68-2.44.88-7h-4.33c-.56,4.22-2,8-7.68,10.12a8.79,8.79,0,0,0-1.74-2.42c5-1.61,6.11-4.51,6.55-7.7h-3.71V23.29a18.79,18.79,0,0,1-1.65,1.58,17.87,17.87,0,0,0-2.2-1.93,15.57,15.57,0,0,0,5.45-8l2.75.66a22.66,22.66,0,0,1-3.45,6.63h11.4a18.26,18.26,0,0,1-3.33-5.26h-3.49V14.49Z"/></g></g></svg>