<svg xmlns="http://www.w3.org/2000/svg" viewBox="0 0 405.24 50.2"><defs><style>.cls-1{fill:#adb8c0;}.cls-2{fill:#f7f6f4;}</style></defs><title>アセット 27</title><g id="レイヤー_2" data-name="レイヤー 2"><g id="レイヤー_1-2" data-name="レイヤー 1"><rect class="cls-1" width="405.24" height="50.2" rx="25.1" ry="25.1"/><path class="cls-2" d="M32.9,31.92c4.43-4,7-7,7-9.52a2.33,2.33,0,0,0-2.44-2.64,4.21,4.21,0,0,0-3,1.67l-1.76-1.76a6.6,6.6,0,0,1,5.17-2.47,4.78,4.78,0,0,1,5.13,5c0,3-2.45,6.12-5.42,9,.82-.09,1.9-.18,2.64-.18h3.55v2.73H32.9Z"/><path class="cls-2" d="M46.76,25.59c0-5.64,2.2-8.39,5.52-8.39s5.51,2.78,5.51,8.39-2.2,8.51-5.51,8.51S46.76,31.2,46.76,25.59Zm8,0c0-4.56-1.06-5.88-2.45-5.88S49.82,21,49.82,25.59s1.06,6,2.46,6S54.73,30.16,54.73,25.59Z"/><path class="cls-2" d="M61.44,31.18h3.5V20.88H62v-2a10.56,10.56,0,0,0,3.78-1.37h2.4V31.18h3.06v2.61H61.44Z"/><path class="cls-2" d="M75.27,31.18h3.5V20.88h-3v-2a10.55,10.55,0,0,0,3.79-1.37H82V31.18h3.06v2.61h-9.8Z"/><path class="cls-2" d="M113.89,31h-7.53v4.71h-2.7V31H93.75V28.51h3.48V22.75h6.43V20.11H99a19.41,19.41,0,0,1-3,4,19,19,0,0,0-2.26-1.69,17,17,0,0,0,4.62-7.33l2.66.68a15.49,15.49,0,0,1-.72,1.81h12.43v2.53h-6.32v2.64h5.81v2.42h-5.81v3.34h7.53Zm-10.23-2.51V25.17H99.85v3.34Z"/><path class="cls-2" d="M121.76,31.88l1.5-2.07a5,5,0,0,0,3.58,1.65,2.74,2.74,0,0,0,2.89-3A2.64,2.64,0,0,0,127,25.52a3.9,3.9,0,0,0-2.45.86l-1.47-1,.44-7.9h8.71v2.71h-5.92L126,23.67a4.19,4.19,0,0,1,2-.46c2.73,0,5,1.63,5,5.17a5.5,5.5,0,0,1-5.7,5.72A7.43,7.43,0,0,1,121.76,31.88Z"/><path class="cls-2" d="M159,32.36c0,1.59-.38,2.34-1.39,2.78s-2.6.5-4.86.5a11.46,11.46,0,0,0-1.1-2.75c1.54.09,3.39.07,3.87.07s.7-.18.7-.64V29.13H146.8a11.89,11.89,0,0,1-3.72,6.58,10.13,10.13,0,0,0-2-1.89c3.33-2.84,3.64-7,3.64-10.39V16.19H159Zm-2.78-5.76V23.91h-8.82c0,.84-.07,1.76-.15,2.69Zm-8.82-7.86v2.69h8.82V18.74Z"/><path class="cls-2" d="M170.23,31.92c4.42-4,7-7,7-9.52a2.34,2.34,0,0,0-2.45-2.64,4.24,4.24,0,0,0-3,1.67l-1.76-1.76a6.6,6.6,0,0,1,5.17-2.47,4.78,4.78,0,0,1,5.13,5c0,3-2.44,6.12-5.41,9,.81-.09,1.89-.18,2.64-.18h3.54v2.73H170.23Z"/><path class="cls-2" d="M207.32,16.48V35.4H204.5V34h-9.77v1.43H192v-19Zm-12.59,2.64v4.73h9.77V19.12Zm9.77,12.25V26.44h-9.77v4.93Z"/><path class="cls-2" d="M223.44,19.43v3.43l.45-.51a53.58,53.58,0,0,1,7.52,4.53l-1.94,2.4a43.33,43.33,0,0,0-6-4.07V35.6h-2.81V19.43h-7.92V16.79h19.6v2.64Z"/><path class="cls-2" d="M255.28,27.68h-8.54v8H244v-8H235.5V25H244V20.46h-3.68a20.85,20.85,0,0,1-2.62,3.87,19.9,19.9,0,0,0-2.48-1.6,18.31,18.31,0,0,0,4.31-7.68l2.79.68c-.24.73-.5,1.43-.79,2.16h12v2.57h-6.82V25h8.54Z"/><path class="cls-2" d="M271.19,20.22h-7.33V17.51h10.82v2c-3.78,4.62-4.29,7.94-4.55,14.32h-3.28C267.14,28.14,268.08,24.53,271.19,20.22Z"/><path class="cls-2" d="M290.41,31.46H286V33.4h-2.42V16.5h6.88ZM286,18.83V22.7h2V18.83Zm2,10.3V25h-2v4.14Zm10.36-9.33v2.09h4.36v2.27h-1.61v1.71h2.12v2.27h-2.12v4.8c0,1.25-.24,1.91-1.12,2.31a9.71,9.71,0,0,1-3.67.44,9.69,9.69,0,0,0-.82-2.47c1.06.05,2.27.05,2.6.05s.46-.09.46-.4V28.14h-7.7V25.87h7.7V24.16h-7V21.89h4.25V19.8h-4.95V17.51h4.95V15.16h2.57v2.35h4.95V19.8Zm-4.46,8.65A27.8,27.8,0,0,1,296.51,32l-2.29,1.34a31.94,31.94,0,0,0-2.53-3.7Z"/><path class="cls-2" d="M311.42,31.92c4.42-4,7-7,7-9.52A2.33,2.33,0,0,0,316,19.76a4.21,4.21,0,0,0-3,1.67l-1.76-1.76a6.58,6.58,0,0,1,5.17-2.47,4.77,4.77,0,0,1,5.12,5c0,3-2.44,6.12-5.41,9,.82-.09,1.89-.18,2.64-.18h3.55v2.73H311.42Z"/><path class="cls-2" d="M325.28,25.59c0-5.64,2.2-8.39,5.52-8.39s5.51,2.78,5.51,8.39-2.2,8.51-5.51,8.51S325.28,31.2,325.28,25.59Zm8,0c0-4.56-1.06-5.88-2.45-5.88s-2.46,1.32-2.46,5.88,1.06,6,2.46,6S333.25,30.16,333.25,25.59Z"/><path class="cls-2" d="M358.88,15.49a13.57,13.57,0,0,0,6.31,7.92,14.84,14.84,0,0,0-1.85,2.42,16.82,16.82,0,0,1-1.67-1.28c-.24,6.49-.5,9-1.27,9.93a2.63,2.63,0,0,1-2,1.05,22.39,22.39,0,0,1-3.32.07,6.18,6.18,0,0,0-.86-2.64c1.21.09,2.36.11,2.91.11a1,1,0,0,0,.88-.31c.44-.48.68-2.44.88-7h-4.34c-.55,4.22-2,8-7.68,10.12a9,9,0,0,0-1.73-2.42c5-1.61,6.11-4.51,6.55-7.7H348V24.29a16.35,16.35,0,0,1-1.65,1.58,16.51,16.51,0,0,0-2.2-1.93,15.52,15.52,0,0,0,5.46-8l2.75.66a22.66,22.66,0,0,1-3.45,6.63h11.39a18.22,18.22,0,0,1-3.32-5.26h-3.5V15.49Z"/></g></g></svg>