<svg xmlns="http://www.w3.org/2000/svg" viewBox="0 0 405.24 50.2"><defs><style>.cls-1{fill:#adb8c0;}.cls-2{fill:#f7f6f4;}</style></defs><title>アセット 28</title><g id="レイヤー_2" data-name="レイヤー 2"><g id="レイヤー_1-2" data-name="レイヤー 1"><rect class="cls-1" width="405.24" height="50.2" rx="25.1" ry="25.1"/><path class="cls-2" d="M32.9,31.92c4.43-4,7-7,7-9.52a2.33,2.33,0,0,0-2.44-2.64,4.21,4.21,0,0,0-3,1.67l-1.76-1.76a6.6,6.6,0,0,1,5.17-2.47,4.78,4.78,0,0,1,5.13,5c0,3-2.45,6.12-5.42,9,.82-.09,1.9-.18,2.64-.18h3.55v2.73H32.9Z"/><path class="cls-2" d="M46.76,25.59c0-5.64,2.2-8.39,5.52-8.39s5.51,2.78,5.51,8.39-2.2,8.51-5.51,8.51S46.76,31.2,46.76,25.59Zm8,0c0-4.56-1.06-5.88-2.45-5.88S49.82,21,49.82,25.59s1.06,6,2.46,6S54.73,30.16,54.73,25.59Z"/><path class="cls-2" d="M61.44,31.17h3.5V20.88H62v-2a10.56,10.56,0,0,0,3.78-1.37h2.4V31.17h3.06v2.62H61.44Z"/><path class="cls-2" d="M85.81,29.57H83.88v4.22h-3V29.57H73.93v-2.2L80,17.51h3.87V27.1h1.93Zm-5-2.47V23.78c0-.94.09-2.42.14-3.36h-.09c-.4.85-.84,1.76-1.3,2.64l-2.53,4Z"/><path class="cls-2" d="M113.89,31h-7.53v4.71h-2.7V31H93.75V28.51h3.48V22.75h6.43V20.11H99a19.41,19.41,0,0,1-3,4,19,19,0,0,0-2.26-1.69,17,17,0,0,0,4.62-7.33l2.66.68a15.49,15.49,0,0,1-.72,1.81h12.43v2.53h-6.32v2.64h5.81v2.42h-5.81v3.34h7.53Zm-10.23-2.51V25.17H99.85v3.34Z"/><path class="cls-2" d="M131.66,21a3.53,3.53,0,0,0-2.51-1.19c-1.87,0-3.41,1.41-3.54,5.48A4.74,4.74,0,0,1,129,23.54c2.73,0,4.67,1.63,4.67,5.13a5.09,5.09,0,0,1-5.1,5.43c-3.11,0-5.86-2.49-5.86-8.23,0-6.07,3-8.67,6.29-8.67a6,6,0,0,1,4.43,1.85Zm-1,7.68c0-1.94-.9-2.84-2.31-2.84a3.21,3.21,0,0,0-2.66,1.71c.3,3,1.4,4.12,2.77,4.12C129.66,31.66,130.65,30.65,130.65,28.67Z"/><path class="cls-2" d="M159.36,32.36c0,1.59-.37,2.34-1.39,2.78s-2.59.5-4.86.5a11.06,11.06,0,0,0-1.1-2.75c1.54.09,3.39.07,3.87.07s.71-.18.71-.64V29.13h-9.42a11.83,11.83,0,0,1-3.72,6.58,10.07,10.07,0,0,0-2-1.89c3.32-2.84,3.63-7,3.63-10.39V16.19h14.3Zm-2.77-5.76V23.91h-8.82c0,.84-.07,1.76-.16,2.69Zm-8.82-7.86v2.69h8.82V18.74Z"/><path class="cls-2" d="M170.23,31.88l1.49-2.07a5.09,5.09,0,0,0,3.59,1.65,2.73,2.73,0,0,0,2.88-3,2.64,2.64,0,0,0-2.75-2.95,3.85,3.85,0,0,0-2.44.86l-1.48-1,.44-7.9h8.72v2.71h-5.92l-.31,3.45a4.19,4.19,0,0,1,2-.46c2.73,0,5,1.63,5,5.17a5.5,5.5,0,0,1-5.69,5.72A7.41,7.41,0,0,1,170.23,31.88Z"/><path class="cls-2" d="M207.69,16.48V35.4h-2.81V34h-9.77v1.43H192.4v-19Zm-12.58,2.64v4.73h9.77V19.12Zm9.77,12.25V26.44h-9.77v4.93Z"/><path class="cls-2" d="M232.8,32v2.64H212.9V32h7.86V15.42h2.82v6.32h7.79v2.64h-7.79V32Z"/><path class="cls-2" d="M255.65,27.68h-8.53v8h-2.73v-8h-8.52V25h8.52V20.46h-3.68a20.83,20.83,0,0,1-2.61,3.87,20.79,20.79,0,0,0-2.49-1.6,18.2,18.2,0,0,0,4.31-7.68l2.8.68c-.25.72-.51,1.43-.8,2.15h12v2.58h-6.82V25h8.53Z"/><path class="cls-2" d="M273.23,21a3.53,3.53,0,0,0-2.51-1.19c-1.87,0-3.41,1.41-3.54,5.48a4.74,4.74,0,0,1,3.34-1.74c2.73,0,4.67,1.63,4.67,5.13a5.1,5.1,0,0,1-5.11,5.43c-3.1,0-5.85-2.49-5.85-8.23,0-6.07,3-8.67,6.29-8.67A6.06,6.06,0,0,1,275,19.05Zm-1,7.68c0-1.94-.9-2.84-2.31-2.84a3.21,3.21,0,0,0-2.66,1.71c.3,3,1.4,4.12,2.77,4.12C271.23,31.66,272.22,30.65,272.22,28.67Z"/><path class="cls-2" d="M290.79,31.46h-4.47V33.4H283.9V16.5h6.89Zm-4.47-12.63V22.7h2V18.83Zm2,10.3V25h-2v4.14Zm10.37-9.33v2.09h4.35v2.27h-1.6v1.71h2.11v2.27h-2.11v4.8c0,1.25-.24,1.91-1.12,2.31a9.8,9.8,0,0,1-3.68.44,9.53,9.53,0,0,0-.81-2.47c1,0,2.26,0,2.59,0s.46-.08.46-.39V28.14h-7.7V25.87h7.7V24.16h-7V21.89h4.24V19.8h-4.95V17.51h4.95V15.16h2.58v2.35h5V19.8Zm-4.47,8.65A27.8,27.8,0,0,1,296.88,32l-2.29,1.34a30.73,30.73,0,0,0-2.53-3.7Z"/><path class="cls-2" d="M311.82,25.59c0-5.64,2.2-8.39,5.52-8.39s5.5,2.78,5.5,8.39-2.2,8.51-5.5,8.51S311.82,31.2,311.82,25.59Zm8,0c0-4.56-1-5.88-2.44-5.88s-2.46,1.32-2.46,5.88,1.05,6,2.46,6S319.78,30.16,319.78,25.59Z"/><path class="cls-2" d="M325.65,25.59c0-5.64,2.21-8.39,5.53-8.39s5.5,2.78,5.5,8.39-2.2,8.51-5.5,8.51S325.65,31.2,325.65,25.59Zm8,0c0-4.56-1.06-5.88-2.44-5.88s-2.47,1.32-2.47,5.88,1.06,6,2.47,6S333.62,30.16,333.62,25.59Z"/><path class="cls-2" d="M359.25,15.49a13.59,13.59,0,0,0,6.32,7.92,14.84,14.84,0,0,0-1.85,2.42,15.73,15.73,0,0,1-1.67-1.28c-.25,6.49-.51,9-1.28,9.93a2.63,2.63,0,0,1-2,1.05,22.58,22.58,0,0,1-3.33.07,6.3,6.3,0,0,0-.85-2.64c1.21.09,2.35.11,2.9.11a1,1,0,0,0,.88-.31c.44-.48.68-2.44.88-7h-4.33c-.55,4.22-2,8-7.68,10.12a8.79,8.79,0,0,0-1.74-2.42c5-1.61,6.12-4.51,6.56-7.7h-3.72V24.29a18.79,18.79,0,0,1-1.65,1.58,17.17,17.17,0,0,0-2.2-1.93,15.57,15.57,0,0,0,5.45-8l2.75.66a22.66,22.66,0,0,1-3.45,6.63h11.4a18.26,18.26,0,0,1-3.33-5.26h-3.49V15.49Z"/></g></g></svg>