<svg xmlns="http://www.w3.org/2000/svg" viewBox="0 0 405.24 50.2"><defs><style>.cls-1{fill:#adb8c0;}.cls-2{fill:#f7f6f4;}</style></defs><title>アセット 26</title><g id="レイヤー_2" data-name="レイヤー 2"><g id="レイヤー_1-2" data-name="レイヤー 1"><rect class="cls-1" width="405.24" height="50.2" rx="25.1" ry="25.1"/><path class="cls-2" d="M32.9,31.92c4.43-4,7-7,7-9.52a2.33,2.33,0,0,0-2.44-2.64,4.21,4.21,0,0,0-3,1.67l-1.76-1.76a6.6,6.6,0,0,1,5.17-2.47,4.78,4.78,0,0,1,5.13,5c0,3-2.45,6.12-5.42,9,.82-.09,1.9-.18,2.64-.18h3.55v2.73H32.9Z"/><path class="cls-2" d="M46.76,25.59c0-5.64,2.2-8.39,5.52-8.39s5.51,2.78,5.51,8.39-2.2,8.51-5.51,8.51S46.76,31.2,46.76,25.59Zm8,0c0-4.56-1.06-5.88-2.45-5.88S49.82,21,49.82,25.59s1.06,6,2.46,6S54.73,30.16,54.73,25.59Z"/><path class="cls-2" d="M61.44,31.18h3.5V20.88H62v-2a10.56,10.56,0,0,0,3.78-1.37h2.4V31.18h3.06v2.61H61.44Z"/><path class="cls-2" d="M85.81,29.57H83.88v4.22h-3V29.57H73.93v-2.2L80,17.51h3.87V27.1h1.93Zm-5-2.47V23.78c0-.94.09-2.42.14-3.36h-.09c-.4.85-.84,1.76-1.3,2.64l-2.53,4Z"/><path class="cls-2" d="M113.89,31h-7.53v4.71h-2.7V31H93.75V28.51h3.48V22.75h6.43V20.11H99a19.41,19.41,0,0,1-3,4,19,19,0,0,0-2.26-1.69,17,17,0,0,0,4.62-7.33l2.66.68a15.49,15.49,0,0,1-.72,1.81h12.43v2.53h-6.32v2.64h5.81v2.42h-5.81v3.34h7.53Zm-10.23-2.51V25.17H99.85v3.34Z"/><path class="cls-2" d="M124.4,30.32A3.76,3.76,0,0,0,127,31.46c1.83,0,3.35-1.39,3.48-5.48a4.53,4.53,0,0,1-3.34,1.78c-2.71,0-4.67-1.67-4.67-5.12a5.1,5.1,0,0,1,5.13-5.44c3.08,0,5.85,2.42,5.85,8.08,0,6.16-3,8.82-6.25,8.82a6.09,6.09,0,0,1-4.46-1.85Zm6-6.6c-.29-3-1.41-4.07-2.8-4.07-1.21,0-2.2,1-2.2,3s.9,2.81,2.31,2.81A3.26,3.26,0,0,0,130.41,23.72Z"/><path class="cls-2" d="M159.36,32.36c0,1.59-.37,2.34-1.39,2.78s-2.59.5-4.86.5a11.06,11.06,0,0,0-1.1-2.75c1.54.09,3.39.07,3.87.07s.71-.18.71-.64V29.13h-9.42a11.83,11.83,0,0,1-3.72,6.58,10.07,10.07,0,0,0-2-1.89c3.32-2.84,3.63-7,3.63-10.39V16.19h14.3Zm-2.77-5.76V23.91h-8.82c0,.84-.07,1.76-.16,2.69Zm-8.82-7.86v2.69h8.82V18.74Z"/><path class="cls-2" d="M171.46,31.18H175V20.88h-3v-2a10.49,10.49,0,0,0,3.78-1.37h2.4V31.18h3.06v2.61h-9.79Z"/><path class="cls-2" d="M207.69,16.48V35.4h-2.81V34h-9.77v1.43H192.4v-19Zm-12.58,2.64v4.73h9.77V19.12Zm9.77,12.25V26.44h-9.77v4.93Z"/><path class="cls-2" d="M223.82,19.43v3.43l.44-.51a53.58,53.58,0,0,1,7.52,4.53l-1.93,2.4a44.58,44.58,0,0,0-6-4.07V35.6H221V19.43h-7.92V16.78h19.61v2.65Z"/><path class="cls-2" d="M255.65,27.68h-8.53v8h-2.73v-8h-8.52V25h8.52V20.46h-3.68a20.83,20.83,0,0,1-2.61,3.87,20.79,20.79,0,0,0-2.49-1.6,18.2,18.2,0,0,0,4.31-7.68l2.8.68c-.25.72-.51,1.43-.8,2.15h12v2.58h-6.82V25h8.53Z"/><path class="cls-2" d="M275.47,29.57h-1.93v4.22h-3V29.57h-6.93v-2.2l6.08-9.86h3.87V27.1h1.93Zm-5-2.47V23.78c0-.94.09-2.42.14-3.36h-.09c-.4.85-.84,1.76-1.3,2.64l-2.53,4Z"/><path class="cls-2" d="M290.79,31.46h-4.47V33.4H283.9V16.5h6.89Zm-4.47-12.63V22.7h2V18.83Zm2,10.3V25h-2v4.14Zm10.37-9.33v2.09h4.35v2.27h-1.6v1.71h2.11v2.27h-2.11v4.8c0,1.25-.24,1.91-1.12,2.31a9.8,9.8,0,0,1-3.68.44,9.66,9.66,0,0,0-.81-2.47c1,0,2.26,0,2.59,0s.46-.08.46-.39V28.14h-7.7V25.87h7.7V24.16h-7V21.89h4.24V19.8h-4.95V17.51h4.95V15.16h2.58v2.35h5V19.8Zm-4.47,8.65A27.8,27.8,0,0,1,296.88,32l-2.29,1.34a30.73,30.73,0,0,0-2.53-3.7Z"/><path class="cls-2" d="M312.65,31.18h3.5V20.88H313.2v-2A10.62,10.62,0,0,0,317,17.51h2.4V31.18h3.05v2.61h-9.79Z"/><path class="cls-2" d="M325.26,31.83l1.52-2a5.19,5.19,0,0,0,3.63,1.67c1.65,0,2.77-.81,2.77-2.27s-.95-2.59-4.49-2.59V24.27c3,0,4-1,4-2.49a2,2,0,0,0-2.18-2.05,4.71,4.71,0,0,0-3.08,1.46l-1.65-2a7.2,7.2,0,0,1,4.89-2c3.14,0,5.28,1.54,5.28,4.34a3.87,3.87,0,0,1-2.73,3.72v.11a4.06,4.06,0,0,1,3.26,4c0,3-2.62,4.73-5.72,4.73A6.91,6.91,0,0,1,325.26,31.83Z"/><path class="cls-2" d="M359.25,15.49a13.59,13.59,0,0,0,6.32,7.92,14.84,14.84,0,0,0-1.85,2.42,15.73,15.73,0,0,1-1.67-1.28c-.25,6.49-.51,9-1.28,9.93a2.63,2.63,0,0,1-2,1.05,22.58,22.58,0,0,1-3.33.07,6.3,6.3,0,0,0-.85-2.64c1.21.09,2.35.11,2.9.11a1,1,0,0,0,.88-.31c.44-.48.68-2.44.88-7h-4.33c-.55,4.22-2,8-7.68,10.12a8.79,8.79,0,0,0-1.74-2.42c5-1.61,6.12-4.51,6.56-7.7h-3.72V24.29a18.79,18.79,0,0,1-1.65,1.58,17.17,17.17,0,0,0-2.2-1.93,15.57,15.57,0,0,0,5.45-8l2.75.66a22.66,22.66,0,0,1-3.45,6.63h11.4a18.26,18.26,0,0,1-3.33-5.26h-3.49V15.49Z"/></g></g></svg>