<svg xmlns="http://www.w3.org/2000/svg" viewBox="0 0 405.24 50.2"><defs><style>.cls-1{fill:#99837f;}.cls-2{fill:#f7f6f4;}</style></defs><title>アセット 29</title><g id="レイヤー_2" data-name="レイヤー 2"><g id="レイヤー_1-2" data-name="レイヤー 1"><rect class="cls-1" width="405.24" height="50.2" rx="25.1" ry="25.1"/><path class="cls-2" d="M21.9,31.92c4.42-4,7-7,7-9.52a2.33,2.33,0,0,0-2.44-2.64,4.21,4.21,0,0,0-3,1.67l-1.76-1.76a6.58,6.58,0,0,1,5.17-2.47,4.78,4.78,0,0,1,5.13,5c0,3-2.45,6.12-5.42,9,.82-.09,1.89-.18,2.64-.18h3.55v2.73H21.9Z"/><path class="cls-2" d="M35.76,25.59c0-5.64,2.2-8.39,5.52-8.39s5.51,2.78,5.51,8.39-2.2,8.51-5.51,8.51S35.76,31.2,35.76,25.59Zm8,0c0-4.56-1.06-5.88-2.45-5.88S38.82,21,38.82,25.59s1.06,6,2.46,6S43.73,30.16,43.73,25.59Z"/><path class="cls-2" d="M50.44,31.18h3.49V20.88H51v-2a10.56,10.56,0,0,0,3.78-1.37h2.4V31.18h3.06v2.61H50.44Z"/><path class="cls-2" d="M63.5,29.74a4.73,4.73,0,0,1,2.8-4.24v-.11a4.63,4.63,0,0,1-2.16-3.87c0-2.62,2.07-4.3,4.91-4.3s4.73,1.74,4.73,4.34a4.73,4.73,0,0,1-2.09,3.72v.11a4.72,4.72,0,0,1,2.73,4.35c0,2.47-2.18,4.36-5.48,4.36C65.84,34.1,63.5,32.3,63.5,29.74Zm7.9-.11c0-1.69-1.49-2.39-3.61-3.25a3.89,3.89,0,0,0-1.49,3A2.49,2.49,0,0,0,69,31.81,2.13,2.13,0,0,0,71.4,29.63Zm-.26-7.87A2.08,2.08,0,0,0,69,19.49a1.9,1.9,0,0,0-2,2c0,1.54,1.26,2.28,3,3A3.88,3.88,0,0,0,71.14,21.76Z"/><path class="cls-2" d="M102.89,31H95.36v4.71h-2.7V31H82.75V28.51h3.48V22.75h6.43V20.11H88a19.77,19.77,0,0,1-3,4,19,19,0,0,0-2.26-1.69,17,17,0,0,0,4.62-7.33l2.66.68a14,14,0,0,1-.73,1.81h12.44v2.53H95.36v2.64h5.81v2.42H95.36v3.34h7.53ZM92.66,28.51V25.17H88.85v3.34Z"/><path class="cls-2" d="M112,31.18h3.5V20.88h-2.95v-2a10.62,10.62,0,0,0,3.79-1.37h2.39V31.18h3.06v2.61H112Z"/><path class="cls-2" d="M125,31.92c4.42-4,7-7,7-9.52a2.33,2.33,0,0,0-2.44-2.64,4.21,4.21,0,0,0-3,1.67l-1.76-1.76A6.58,6.58,0,0,1,130,17.2a4.77,4.77,0,0,1,5.12,5c0,3-2.44,6.12-5.41,9,.82-.09,1.89-.18,2.64-.18h3.55v2.73H125Z"/><path class="cls-2" d="M161.82,32.36c0,1.59-.37,2.34-1.38,2.78s-2.6.5-4.86.5a11.88,11.88,0,0,0-1.1-2.75c1.54.09,3.38.07,3.87.07s.7-.18.7-.64V29.13h-9.42a11.88,11.88,0,0,1-3.71,6.58,10.4,10.4,0,0,0-2-1.89c3.32-2.84,3.63-7,3.63-10.39V16.19h14.3Zm-2.77-5.76V23.91h-8.82c0,.84-.07,1.76-.16,2.69Zm-8.82-7.86v2.69h8.82V18.74Z"/><path class="cls-2" d="M173.55,31.18h3.5V20.88h-3v-2a10.49,10.49,0,0,0,3.78-1.37h2.4V31.18h3.06v2.61h-9.79Z"/><path class="cls-2" d="M186.15,31.83l1.52-2a5.21,5.21,0,0,0,3.63,1.67c1.65,0,2.77-.81,2.77-2.27s-.94-2.59-4.48-2.59V24.27c3,0,4-1,4-2.49a2,2,0,0,0-2.18-2.05,4.69,4.69,0,0,0-3.08,1.46l-1.65-2a7.2,7.2,0,0,1,4.88-2c3.15,0,5.28,1.54,5.28,4.34a3.87,3.87,0,0,1-2.73,3.72v.11a4.06,4.06,0,0,1,3.26,4c0,3-2.62,4.73-5.72,4.73A6.94,6.94,0,0,1,186.15,31.83Z"/><path class="cls-2" d="M223.62,16.48V35.4h-2.81V34H211v1.43h-2.71v-19ZM211,19.12v4.73h9.77V19.12Zm9.77,12.25V26.44H211v4.93Z"/><path class="cls-2" d="M248.72,32v2.64H228.83V32h7.86V15.42h2.82v6.32h7.78v2.64h-7.78V32Z"/><path class="cls-2" d="M271.58,27.68h-8.53v8h-2.73v-8H251.8V25h8.52V20.46h-3.68A20.37,20.37,0,0,1,254,24.33a19.9,19.9,0,0,0-2.48-1.6,18.2,18.2,0,0,0,4.31-7.68l2.8.68c-.25.72-.51,1.43-.8,2.15h12v2.58h-6.82V25h8.53Z"/><path class="cls-2" d="M280.86,31.18h3.5V20.88h-2.95v-2a10.62,10.62,0,0,0,3.79-1.37h2.4V31.18h3.06v2.61h-9.8Z"/><path class="cls-2" d="M294.7,31.18h3.5V20.88h-2.95v-2A10.62,10.62,0,0,0,299,17.51h2.39V31.18h3.06v2.61H294.7Z"/><path class="cls-2" d="M320.55,31.46h-4.46V33.4h-2.42V16.5h6.88Zm-4.46-12.63V22.7h2V18.83Zm2,10.3V25h-2v4.14Zm10.36-9.33v2.09h4.36v2.27h-1.61v1.71h2.12v2.27h-2.12v4.8c0,1.25-.24,1.91-1.12,2.31a9.71,9.71,0,0,1-3.67.44,9.69,9.69,0,0,0-.82-2.47c1.06,0,2.27,0,2.6,0s.46-.08.46-.39V28.14H321V25.87h7.7V24.16h-7V21.89h4.25V19.8H321V17.51h4.95V15.16h2.57v2.35h4.95V19.8ZM324,28.45A27.8,27.8,0,0,1,326.65,32l-2.29,1.34a31.94,31.94,0,0,0-2.53-3.7Z"/><path class="cls-2" d="M341.19,31.83l1.52-2a5.17,5.17,0,0,0,3.63,1.67c1.65,0,2.77-.81,2.77-2.27s-.95-2.59-4.49-2.59V24.27c3,0,4-1,4-2.49a2,2,0,0,0-2.18-2.05,4.71,4.71,0,0,0-3.08,1.46l-1.65-2a7.2,7.2,0,0,1,4.89-2c3.14,0,5.28,1.54,5.28,4.34a3.87,3.87,0,0,1-2.73,3.72v.11a4.06,4.06,0,0,1,3.26,4c0,3-2.62,4.73-5.73,4.73A6.9,6.9,0,0,1,341.19,31.83Z"/><path class="cls-2" d="M375.18,15.49a13.61,13.61,0,0,0,6.31,7.92,14.8,14.8,0,0,0-1.84,2.42A15.85,15.85,0,0,1,378,24.55c-.24,6.49-.5,9-1.27,9.93a2.63,2.63,0,0,1-2,1.05,22.58,22.58,0,0,1-3.33.07,6.3,6.3,0,0,0-.85-2.64c1.21.09,2.35.11,2.9.11a1,1,0,0,0,.88-.31c.44-.48.68-2.44.88-7h-4.33c-.56,4.22-2,8-7.68,10.12a8.79,8.79,0,0,0-1.74-2.42c5-1.61,6.11-4.51,6.55-7.7h-3.71V24.29a18.79,18.79,0,0,1-1.65,1.58,17.87,17.87,0,0,0-2.2-1.93,15.57,15.57,0,0,0,5.45-8l2.75.66a22.66,22.66,0,0,1-3.45,6.63h11.4a18.26,18.26,0,0,1-3.33-5.26h-3.49V15.49Z"/></g></g></svg>